<svg width="59" height="58" viewBox="0 0 59 58" fill="none" xmlns="http://www.w3.org/2000/svg">
<path d="M2.24985 1.10288C1.60797 2.68836 3.53362 3.87747 5.09249 2.78745C6.19286 2.09381 5.36758 0.310147 3.71702 0.0128699C3.16683 -0.0862224 2.52495 0.409239 2.24985 1.10288Z" fill="white"/>
<path d="M49.7507 2.78762C50.3009 5.66129 50.6677 5.95857 51.9514 4.274C52.8684 3.0849 52.685 2.58944 51.2179 1.7967C49.659 0.805776 49.4756 1.00396 49.7507 2.78762Z" fill="white"/>
<path d="M21.5079 9.03056C11.5128 12.0033 5.09393 23.5971 7.75317 34.2991C8.30336 36.4791 8.57845 36.5782 13.1633 35.9836C19.949 35.0918 32.6033 29.939 39.2055 25.3808C42.2316 23.2998 44.7074 21.2189 44.7074 20.7234C44.7074 20.228 43.2402 18.0479 41.4063 15.7688C36.2712 9.22874 29.1188 6.85053 21.5079 9.03056Z" fill="white"/>
<path d="M45.3487 12.2012C42.7811 13.6876 42.7811 13.7867 44.34 15.6695C45.1653 16.6604 46.4491 17.5522 47.1826 17.5522C49.2917 17.5522 48.4664 19.7322 44.8902 23.3987C37.9212 30.5333 18.0227 38.758 9.12803 38.1634L4.81823 37.8661L5.09332 34.0015C5.36841 30.1369 5.36841 30.1369 3.25936 31.6233C-1.69232 35.1906 -0.867041 42.8207 4.81823 45.6944C10.6869 48.7663 22.8827 46.8835 35.2619 41.0371C49.9336 34.1997 57.2694 27.3623 58.1864 19.6332C58.6449 16.3631 58.2781 15.2731 56.3524 13.1922C53.6015 10.2194 49.3834 9.82302 45.3487 12.2012Z" fill="white"/>
<path d="M39.2054 41.4335C33.6119 44.6044 23.25 48.2708 19.8572 48.2708C16.5561 48.2708 19.1236 50.3518 23.6168 51.2436C28.2017 52.1354 33.9787 50.8472 37.5549 48.1717C40.2141 46.0908 45.2575 39.5507 44.6156 38.9562C44.4322 38.758 41.9564 39.848 39.2054 41.4335Z" fill="white"/>
<path d="M47.0906 48.6672C47.4574 50.3518 47.1823 51.3427 45.8986 52.1354C44.3397 53.1263 44.3397 53.1263 46.1737 53.2254C47.274 53.2254 48.4661 54.2163 49.0163 55.4055L49.9333 57.6846L50.5752 55.4055C50.942 54.1173 51.9506 53.2254 53.051 53.2254C53.968 53.2254 54.7933 52.73 54.7933 52.2345C54.7933 51.6399 54.4265 51.2436 53.8763 51.2436C53.4178 51.2436 52.9593 50.0545 52.9593 48.6672C52.9593 46.4872 52.6842 46.289 51.6755 47.1808C50.6669 48.0726 49.8416 48.1717 48.3744 47.2799C46.6322 46.289 46.5405 46.3881 47.0906 48.6672Z" fill="white"/>
</svg>
